<mxfile host="app.diagrams.net" modified="2022-07-04T23:44:57.606Z" agent="5.0 (Macintosh; Intel Mac OS X 10_15_7) AppleWebKit/537.36 (KHTML, like Gecko) Chrome/103.0.0.0 Safari/537.36" etag="QRdsGESUGsNotzn6GGKs" version="20.0.4" type="github">
  <diagram id="PCFFjkg9Jv1gXW4gGNiH" name="Page-1">
    <mxGraphModel dx="1181" dy="686" grid="1" gridSize="10" guides="1" tooltips="1" connect="1" arrows="1" fold="1" page="1" pageScale="1" pageWidth="827" pageHeight="1169" math="0" shadow="0">
      <root>
        <mxCell id="0" />
        <mxCell id="1" parent="0" />
        <mxCell id="uPV0i0hWWloQ9XYH6VPm-38" value="Background operations" style="rounded=0;whiteSpace=wrap;html=1;fillColor=none;verticalAlign=top;dashed=1;" vertex="1" parent="1">
          <mxGeometry x="2380" y="280" width="320" height="360" as="geometry" />
        </mxCell>
        <mxCell id="DFM9-NTpDsd31qXUWvBV-4" value="Component Production" style="rounded=0;whiteSpace=wrap;html=1;verticalAlign=top;" parent="1" vertex="1">
          <mxGeometry x="120" y="160" width="186" height="300" as="geometry" />
        </mxCell>
        <mxCell id="DFM9-NTpDsd31qXUWvBV-5" value="develop" style="rounded=0;whiteSpace=wrap;html=1;" parent="1" vertex="1">
          <mxGeometry x="153" y="230" width="120" height="60" as="geometry" />
        </mxCell>
        <mxCell id="DFM9-NTpDsd31qXUWvBV-6" value="publish" style="rounded=0;whiteSpace=wrap;html=1;" parent="1" vertex="1">
          <mxGeometry x="153" y="350" width="120" height="60" as="geometry" />
        </mxCell>
        <mxCell id="DFM9-NTpDsd31qXUWvBV-8" value="Page Production" style="rounded=0;whiteSpace=wrap;html=1;verticalAlign=top;" parent="1" vertex="1">
          <mxGeometry x="346" y="160" width="186" height="300" as="geometry" />
        </mxCell>
        <mxCell id="DFM9-NTpDsd31qXUWvBV-9" value="Page&amp;nbsp;Consumption" style="rounded=0;whiteSpace=wrap;html=1;verticalAlign=top;" parent="1" vertex="1">
          <mxGeometry x="570" y="160" width="186" height="300" as="geometry" />
        </mxCell>
        <mxCell id="DFM9-NTpDsd31qXUWvBV-10" value="developer" style="shape=umlActor;verticalLabelPosition=bottom;verticalAlign=top;html=1;outlineConnect=0;" parent="1" vertex="1">
          <mxGeometry x="198" y="510" width="30" height="60" as="geometry" />
        </mxCell>
        <mxCell id="DFM9-NTpDsd31qXUWvBV-11" value="operation" style="shape=umlActor;verticalLabelPosition=bottom;verticalAlign=top;html=1;outlineConnect=0;" parent="1" vertex="1">
          <mxGeometry x="424" y="510" width="30" height="60" as="geometry" />
        </mxCell>
        <mxCell id="DFM9-NTpDsd31qXUWvBV-12" value="customer" style="shape=umlActor;verticalLabelPosition=bottom;verticalAlign=top;html=1;outlineConnect=0;" parent="1" vertex="1">
          <mxGeometry x="648" y="510" width="30" height="60" as="geometry" />
        </mxCell>
        <mxCell id="DFM9-NTpDsd31qXUWvBV-15" value="layout" style="rounded=0;whiteSpace=wrap;html=1;" parent="1" vertex="1">
          <mxGeometry x="379" y="210" width="120" height="40" as="geometry" />
        </mxCell>
        <mxCell id="DFM9-NTpDsd31qXUWvBV-16" value="config" style="rounded=0;whiteSpace=wrap;html=1;" parent="1" vertex="1">
          <mxGeometry x="379" y="270" width="120" height="40" as="geometry" />
        </mxCell>
        <mxCell id="DFM9-NTpDsd31qXUWvBV-17" value="preview" style="rounded=0;whiteSpace=wrap;html=1;" parent="1" vertex="1">
          <mxGeometry x="379" y="330" width="120" height="40" as="geometry" />
        </mxCell>
        <mxCell id="DFM9-NTpDsd31qXUWvBV-18" value="publish" style="rounded=0;whiteSpace=wrap;html=1;" parent="1" vertex="1">
          <mxGeometry x="379" y="390" width="120" height="40" as="geometry" />
        </mxCell>
        <mxCell id="DFM9-NTpDsd31qXUWvBV-19" value="render" style="rounded=0;whiteSpace=wrap;html=1;" parent="1" vertex="1">
          <mxGeometry x="603" y="280" width="120" height="60" as="geometry" />
        </mxCell>
        <mxCell id="DFM9-NTpDsd31qXUWvBV-20" value="" style="shape=flexArrow;endArrow=classic;html=1;rounded=0;exitX=1;exitY=0.5;exitDx=0;exitDy=0;entryX=0;entryY=0.5;entryDx=0;entryDy=0;" parent="1" source="DFM9-NTpDsd31qXUWvBV-4" target="DFM9-NTpDsd31qXUWvBV-8" edge="1">
          <mxGeometry width="50" height="50" relative="1" as="geometry">
            <mxPoint x="50" y="390" as="sourcePoint" />
            <mxPoint x="100" y="340" as="targetPoint" />
          </mxGeometry>
        </mxCell>
        <mxCell id="DFM9-NTpDsd31qXUWvBV-21" value="" style="shape=flexArrow;endArrow=classic;html=1;rounded=0;exitX=1;exitY=0.5;exitDx=0;exitDy=0;entryX=0;entryY=0.5;entryDx=0;entryDy=0;" parent="1" edge="1">
          <mxGeometry width="50" height="50" relative="1" as="geometry">
            <mxPoint x="532" y="310" as="sourcePoint" />
            <mxPoint x="572" y="310" as="targetPoint" />
          </mxGeometry>
        </mxCell>
        <mxCell id="DFM9-NTpDsd31qXUWvBV-22" value="" style="endArrow=classic;html=1;rounded=0;exitX=0.5;exitY=0.5;exitDx=0;exitDy=0;exitPerimeter=0;entryX=0.5;entryY=1;entryDx=0;entryDy=0;" parent="1" source="DFM9-NTpDsd31qXUWvBV-10" target="DFM9-NTpDsd31qXUWvBV-4" edge="1">
          <mxGeometry width="50" height="50" relative="1" as="geometry">
            <mxPoint x="300" y="560" as="sourcePoint" />
            <mxPoint x="350" y="510" as="targetPoint" />
          </mxGeometry>
        </mxCell>
        <mxCell id="DFM9-NTpDsd31qXUWvBV-24" value="" style="endArrow=classic;html=1;rounded=0;exitX=0.5;exitY=0.5;exitDx=0;exitDy=0;exitPerimeter=0;entryX=0.5;entryY=1;entryDx=0;entryDy=0;" parent="1" source="DFM9-NTpDsd31qXUWvBV-11" target="DFM9-NTpDsd31qXUWvBV-8" edge="1">
          <mxGeometry width="50" height="50" relative="1" as="geometry">
            <mxPoint x="223" y="550" as="sourcePoint" />
            <mxPoint x="223" y="470" as="targetPoint" />
          </mxGeometry>
        </mxCell>
        <mxCell id="DFM9-NTpDsd31qXUWvBV-25" value="" style="endArrow=classic;html=1;rounded=0;exitX=0.5;exitY=0.5;exitDx=0;exitDy=0;exitPerimeter=0;entryX=0.5;entryY=1;entryDx=0;entryDy=0;" parent="1" source="DFM9-NTpDsd31qXUWvBV-12" target="DFM9-NTpDsd31qXUWvBV-9" edge="1">
          <mxGeometry width="50" height="50" relative="1" as="geometry">
            <mxPoint x="449" y="550" as="sourcePoint" />
            <mxPoint x="449" y="470" as="targetPoint" />
          </mxGeometry>
        </mxCell>
        <mxCell id="DFM9-NTpDsd31qXUWvBV-26" value="" style="rounded=0;whiteSpace=wrap;html=1;" parent="1" vertex="1">
          <mxGeometry x="160" y="720" width="760" height="400" as="geometry" />
        </mxCell>
        <mxCell id="DFM9-NTpDsd31qXUWvBV-27" value="Material Pool" style="rounded=0;whiteSpace=wrap;html=1;" parent="1" vertex="1">
          <mxGeometry x="160" y="720" width="190" height="400" as="geometry" />
        </mxCell>
        <mxCell id="DFM9-NTpDsd31qXUWvBV-28" value="Operate Tree" style="rounded=0;whiteSpace=wrap;html=1;" parent="1" vertex="1">
          <mxGeometry x="350" y="720" width="190" height="400" as="geometry" />
        </mxCell>
        <mxCell id="DFM9-NTpDsd31qXUWvBV-29" value="Prop Config Form" style="rounded=0;whiteSpace=wrap;html=1;" parent="1" vertex="1">
          <mxGeometry x="540" y="720" width="190" height="400" as="geometry" />
        </mxCell>
        <mxCell id="DFM9-NTpDsd31qXUWvBV-30" value="Preview Iframe" style="rounded=0;whiteSpace=wrap;html=1;" parent="1" vertex="1">
          <mxGeometry x="730" y="720" width="190" height="400" as="geometry" />
        </mxCell>
        <mxCell id="DFM9-NTpDsd31qXUWvBV-31" value="Base on Component Desc Model" style="rounded=1;whiteSpace=wrap;html=1;" parent="1" vertex="1">
          <mxGeometry x="220" y="970" width="260" height="60" as="geometry" />
        </mxCell>
        <mxCell id="DFM9-NTpDsd31qXUWvBV-32" value="Base on Component Prop Model" style="rounded=1;whiteSpace=wrap;html=1;" parent="1" vertex="1">
          <mxGeometry x="580" y="970" width="110" height="60" as="geometry" />
        </mxCell>
        <mxCell id="DFM9-NTpDsd31qXUWvBV-33" value="Base on Page Desc Model" style="rounded=1;whiteSpace=wrap;html=1;" parent="1" vertex="1">
          <mxGeometry x="770" y="970" width="110" height="60" as="geometry" />
        </mxCell>
        <mxCell id="DFM9-NTpDsd31qXUWvBV-34" value="" style="shape=cross;whiteSpace=wrap;html=1;" parent="1" vertex="1">
          <mxGeometry x="519" y="978" width="40" height="40" as="geometry" />
        </mxCell>
        <mxCell id="DFM9-NTpDsd31qXUWvBV-35" value="" style="shape=flexArrow;endArrow=classic;html=1;rounded=0;fillColor=#FFFFFF;" parent="1" edge="1">
          <mxGeometry width="50" height="50" relative="1" as="geometry">
            <mxPoint x="700" y="997.5" as="sourcePoint" />
            <mxPoint x="760" y="997.5" as="targetPoint" />
          </mxGeometry>
        </mxCell>
        <mxCell id="uPV0i0hWWloQ9XYH6VPm-1" value="Material" style="rounded=0;whiteSpace=wrap;html=1;" vertex="1" parent="1">
          <mxGeometry x="1121" y="330" width="120" height="60" as="geometry" />
        </mxCell>
        <mxCell id="uPV0i0hWWloQ9XYH6VPm-2" value="" style="rounded=0;whiteSpace=wrap;html=1;" vertex="1" parent="1">
          <mxGeometry x="1320" y="200" width="380" height="320" as="geometry" />
        </mxCell>
        <mxCell id="uPV0i0hWWloQ9XYH6VPm-3" value="Material Pool" style="rounded=0;whiteSpace=wrap;html=1;" vertex="1" parent="1">
          <mxGeometry x="1360" y="240" width="120" height="60" as="geometry" />
        </mxCell>
        <mxCell id="uPV0i0hWWloQ9XYH6VPm-4" value="Material Props" style="rounded=0;whiteSpace=wrap;html=1;" vertex="1" parent="1">
          <mxGeometry x="1540" y="240" width="120" height="60" as="geometry" />
        </mxCell>
        <mxCell id="uPV0i0hWWloQ9XYH6VPm-5" value="Canvas / Operate Tree" style="rounded=0;whiteSpace=wrap;html=1;" vertex="1" parent="1">
          <mxGeometry x="1360" y="340" width="300" height="60" as="geometry" />
        </mxCell>
        <mxCell id="uPV0i0hWWloQ9XYH6VPm-6" value="Preview Logic Tree" style="rounded=0;whiteSpace=wrap;html=1;" vertex="1" parent="1">
          <mxGeometry x="1360" y="420" width="300" height="60" as="geometry" />
        </mxCell>
        <mxCell id="uPV0i0hWWloQ9XYH6VPm-7" value="Page Render Tree" style="rounded=0;whiteSpace=wrap;html=1;" vertex="1" parent="1">
          <mxGeometry x="1780" y="330" width="120" height="60" as="geometry" />
        </mxCell>
        <mxCell id="uPV0i0hWWloQ9XYH6VPm-8" value="" style="endArrow=classic;html=1;rounded=0;exitX=1;exitY=0.5;exitDx=0;exitDy=0;" edge="1" parent="1" source="uPV0i0hWWloQ9XYH6VPm-1" target="uPV0i0hWWloQ9XYH6VPm-2">
          <mxGeometry width="50" height="50" relative="1" as="geometry">
            <mxPoint x="1260" y="480" as="sourcePoint" />
            <mxPoint x="1310" y="430" as="targetPoint" />
          </mxGeometry>
        </mxCell>
        <mxCell id="uPV0i0hWWloQ9XYH6VPm-9" value="" style="endArrow=classic;html=1;rounded=0;exitX=1;exitY=0.5;exitDx=0;exitDy=0;" edge="1" parent="1" source="uPV0i0hWWloQ9XYH6VPm-2" target="uPV0i0hWWloQ9XYH6VPm-7">
          <mxGeometry width="50" height="50" relative="1" as="geometry">
            <mxPoint x="1251" y="370" as="sourcePoint" />
            <mxPoint x="1330" y="370" as="targetPoint" />
          </mxGeometry>
        </mxCell>
        <mxCell id="uPV0i0hWWloQ9XYH6VPm-10" value="" style="endArrow=classic;html=1;rounded=0;exitX=0.5;exitY=1;exitDx=0;exitDy=0;entryX=0.5;entryY=0;entryDx=0;entryDy=0;" edge="1" parent="1" source="uPV0i0hWWloQ9XYH6VPm-3" target="uPV0i0hWWloQ9XYH6VPm-5">
          <mxGeometry width="50" height="50" relative="1" as="geometry">
            <mxPoint x="1270" y="500" as="sourcePoint" />
            <mxPoint x="1320" y="450" as="targetPoint" />
            <Array as="points">
              <mxPoint x="1420" y="320" />
              <mxPoint x="1510" y="320" />
            </Array>
          </mxGeometry>
        </mxCell>
        <mxCell id="uPV0i0hWWloQ9XYH6VPm-11" value="" style="endArrow=classic;html=1;rounded=0;exitX=0.5;exitY=1;exitDx=0;exitDy=0;" edge="1" parent="1" source="uPV0i0hWWloQ9XYH6VPm-4">
          <mxGeometry width="50" height="50" relative="1" as="geometry">
            <mxPoint x="1430" y="310" as="sourcePoint" />
            <mxPoint x="1510" y="340" as="targetPoint" />
            <Array as="points">
              <mxPoint x="1600" y="320" />
              <mxPoint x="1510" y="320" />
            </Array>
          </mxGeometry>
        </mxCell>
        <mxCell id="uPV0i0hWWloQ9XYH6VPm-12" value="" style="endArrow=classic;html=1;rounded=0;exitX=0.5;exitY=1;exitDx=0;exitDy=0;" edge="1" parent="1" source="uPV0i0hWWloQ9XYH6VPm-5" target="uPV0i0hWWloQ9XYH6VPm-6">
          <mxGeometry width="50" height="50" relative="1" as="geometry">
            <mxPoint x="1550" y="610" as="sourcePoint" />
            <mxPoint x="1600" y="560" as="targetPoint" />
          </mxGeometry>
        </mxCell>
        <mxCell id="uPV0i0hWWloQ9XYH6VPm-17" value="page desc" style="rounded=0;whiteSpace=wrap;html=1;" vertex="1" parent="1">
          <mxGeometry x="1575" y="720" width="120" height="60" as="geometry" />
        </mxCell>
        <mxCell id="uPV0i0hWWloQ9XYH6VPm-18" value="process" style="rounded=0;whiteSpace=wrap;html=1;verticalAlign=top;" vertex="1" parent="1">
          <mxGeometry x="1420" y="820" width="430" height="120" as="geometry" />
        </mxCell>
        <mxCell id="uPV0i0hWWloQ9XYH6VPm-19" value="@babel/parser" style="rounded=0;whiteSpace=wrap;html=1;" vertex="1" parent="1">
          <mxGeometry x="1440" y="860" width="120" height="60" as="geometry" />
        </mxCell>
        <mxCell id="uPV0i0hWWloQ9XYH6VPm-23" value="@babel/traverse" style="rounded=0;whiteSpace=wrap;html=1;" vertex="1" parent="1">
          <mxGeometry x="1575" y="860" width="120" height="60" as="geometry" />
        </mxCell>
        <mxCell id="uPV0i0hWWloQ9XYH6VPm-24" value="@babel/generator" style="rounded=0;whiteSpace=wrap;html=1;" vertex="1" parent="1">
          <mxGeometry x="1710" y="860" width="120" height="60" as="geometry" />
        </mxCell>
        <mxCell id="uPV0i0hWWloQ9XYH6VPm-25" value="source code project" style="rounded=0;whiteSpace=wrap;html=1;verticalAlign=top;" vertex="1" parent="1">
          <mxGeometry x="1470" y="978" width="330" height="120" as="geometry" />
        </mxCell>
        <mxCell id="uPV0i0hWWloQ9XYH6VPm-26" value="index.ts" style="rounded=0;whiteSpace=wrap;html=1;" vertex="1" parent="1">
          <mxGeometry x="1500" y="1018" width="120" height="60" as="geometry" />
        </mxCell>
        <mxCell id="uPV0i0hWWloQ9XYH6VPm-27" value="package.json" style="rounded=0;whiteSpace=wrap;html=1;" vertex="1" parent="1">
          <mxGeometry x="1650" y="1018" width="120" height="60" as="geometry" />
        </mxCell>
        <mxCell id="uPV0i0hWWloQ9XYH6VPm-28" value="" style="endArrow=classic;html=1;rounded=0;exitX=0.5;exitY=1;exitDx=0;exitDy=0;entryX=0.5;entryY=0;entryDx=0;entryDy=0;" edge="1" parent="1" source="uPV0i0hWWloQ9XYH6VPm-17" target="uPV0i0hWWloQ9XYH6VPm-18">
          <mxGeometry width="50" height="50" relative="1" as="geometry">
            <mxPoint x="1330" y="820" as="sourcePoint" />
            <mxPoint x="1380" y="770" as="targetPoint" />
          </mxGeometry>
        </mxCell>
        <mxCell id="uPV0i0hWWloQ9XYH6VPm-29" value="" style="endArrow=classic;html=1;rounded=0;exitX=0.5;exitY=1;exitDx=0;exitDy=0;entryX=0.5;entryY=0;entryDx=0;entryDy=0;" edge="1" parent="1" source="uPV0i0hWWloQ9XYH6VPm-18" target="uPV0i0hWWloQ9XYH6VPm-25">
          <mxGeometry width="50" height="50" relative="1" as="geometry">
            <mxPoint x="1390" y="1030" as="sourcePoint" />
            <mxPoint x="1440" y="980" as="targetPoint" />
          </mxGeometry>
        </mxCell>
        <mxCell id="uPV0i0hWWloQ9XYH6VPm-30" value="open app" style="rounded=0;whiteSpace=wrap;html=1;" vertex="1" parent="1">
          <mxGeometry x="2240" y="320" width="120" height="60" as="geometry" />
        </mxCell>
        <mxCell id="uPV0i0hWWloQ9XYH6VPm-31" value="load preload config" style="rounded=0;whiteSpace=wrap;html=1;" vertex="1" parent="1">
          <mxGeometry x="2400" y="320" width="120" height="60" as="geometry" />
        </mxCell>
        <mxCell id="uPV0i0hWWloQ9XYH6VPm-32" value="init webview" style="rounded=0;whiteSpace=wrap;html=1;" vertex="1" parent="1">
          <mxGeometry x="2560" y="320" width="120" height="60" as="geometry" />
        </mxCell>
        <mxCell id="uPV0i0hWWloQ9XYH6VPm-33" value="Actor" style="shape=umlActor;verticalLabelPosition=bottom;verticalAlign=top;html=1;outlineConnect=0;" vertex="1" parent="1">
          <mxGeometry x="2130" y="320" width="30" height="60" as="geometry" />
        </mxCell>
        <mxCell id="uPV0i0hWWloQ9XYH6VPm-34" value="" style="endArrow=classic;html=1;rounded=0;exitX=0.5;exitY=0.5;exitDx=0;exitDy=0;exitPerimeter=0;" edge="1" parent="1" source="uPV0i0hWWloQ9XYH6VPm-33" target="uPV0i0hWWloQ9XYH6VPm-30">
          <mxGeometry width="50" height="50" relative="1" as="geometry">
            <mxPoint x="2250" y="480" as="sourcePoint" />
            <mxPoint x="2300" y="430" as="targetPoint" />
          </mxGeometry>
        </mxCell>
        <mxCell id="uPV0i0hWWloQ9XYH6VPm-35" value="" style="endArrow=classic;html=1;rounded=0;exitX=1;exitY=0.5;exitDx=0;exitDy=0;entryX=0;entryY=0.5;entryDx=0;entryDy=0;" edge="1" parent="1" source="uPV0i0hWWloQ9XYH6VPm-30" target="uPV0i0hWWloQ9XYH6VPm-31">
          <mxGeometry width="50" height="50" relative="1" as="geometry">
            <mxPoint x="2155" y="360" as="sourcePoint" />
            <mxPoint x="2250" y="360" as="targetPoint" />
          </mxGeometry>
        </mxCell>
        <mxCell id="uPV0i0hWWloQ9XYH6VPm-36" value="" style="endArrow=classic;html=1;rounded=0;exitX=1;exitY=0.5;exitDx=0;exitDy=0;entryX=0;entryY=0.5;entryDx=0;entryDy=0;" edge="1" parent="1" source="uPV0i0hWWloQ9XYH6VPm-31" target="uPV0i0hWWloQ9XYH6VPm-32">
          <mxGeometry width="50" height="50" relative="1" as="geometry">
            <mxPoint x="2370" y="360" as="sourcePoint" />
            <mxPoint x="2410" y="360" as="targetPoint" />
          </mxGeometry>
        </mxCell>
        <mxCell id="uPV0i0hWWloQ9XYH6VPm-39" value="" style="endArrow=classic;html=1;rounded=0;exitX=0.5;exitY=1;exitDx=0;exitDy=0;" edge="1" parent="1" source="uPV0i0hWWloQ9XYH6VPm-30">
          <mxGeometry width="50" height="50" relative="1" as="geometry">
            <mxPoint x="2300" y="560" as="sourcePoint" />
            <mxPoint x="2300" y="440" as="targetPoint" />
          </mxGeometry>
        </mxCell>
        <mxCell id="uPV0i0hWWloQ9XYH6VPm-40" value="click banner" style="rounded=0;whiteSpace=wrap;html=1;" vertex="1" parent="1">
          <mxGeometry x="2240" y="440" width="120" height="60" as="geometry" />
        </mxCell>
        <mxCell id="uPV0i0hWWloQ9XYH6VPm-42" value="open webview" style="rounded=0;whiteSpace=wrap;html=1;" vertex="1" parent="1">
          <mxGeometry x="2240" y="560" width="120" height="60" as="geometry" />
        </mxCell>
        <mxCell id="uPV0i0hWWloQ9XYH6VPm-43" value="" style="endArrow=classic;html=1;rounded=0;exitX=0.5;exitY=1;exitDx=0;exitDy=0;entryX=0.5;entryY=0;entryDx=0;entryDy=0;" edge="1" parent="1" source="uPV0i0hWWloQ9XYH6VPm-40" target="uPV0i0hWWloQ9XYH6VPm-42">
          <mxGeometry width="50" height="50" relative="1" as="geometry">
            <mxPoint x="2440" y="570" as="sourcePoint" />
            <mxPoint x="2490" y="520" as="targetPoint" />
          </mxGeometry>
        </mxCell>
        <mxCell id="uPV0i0hWWloQ9XYH6VPm-44" value="preload assets" style="rounded=0;whiteSpace=wrap;html=1;" vertex="1" parent="1">
          <mxGeometry x="2400" y="440" width="120" height="60" as="geometry" />
        </mxCell>
        <mxCell id="uPV0i0hWWloQ9XYH6VPm-45" value="prefetch API" style="rounded=0;whiteSpace=wrap;html=1;" vertex="1" parent="1">
          <mxGeometry x="2560" y="440" width="120" height="60" as="geometry" />
        </mxCell>
        <mxCell id="uPV0i0hWWloQ9XYH6VPm-46" value="show content" style="rounded=0;whiteSpace=wrap;html=1;" vertex="1" parent="1">
          <mxGeometry x="2400" y="560" width="120" height="60" as="geometry" />
        </mxCell>
        <mxCell id="uPV0i0hWWloQ9XYH6VPm-47" value="init a new webview&lt;br&gt;for next page" style="rounded=0;whiteSpace=wrap;html=1;" vertex="1" parent="1">
          <mxGeometry x="2560" y="560" width="120" height="60" as="geometry" />
        </mxCell>
        <mxCell id="uPV0i0hWWloQ9XYH6VPm-48" value="" style="endArrow=classic;html=1;rounded=0;exitX=1;exitY=0.5;exitDx=0;exitDy=0;entryX=0;entryY=0.5;entryDx=0;entryDy=0;" edge="1" parent="1" source="uPV0i0hWWloQ9XYH6VPm-40" target="uPV0i0hWWloQ9XYH6VPm-44">
          <mxGeometry width="50" height="50" relative="1" as="geometry">
            <mxPoint x="2400" y="730" as="sourcePoint" />
            <mxPoint x="2450" y="680" as="targetPoint" />
          </mxGeometry>
        </mxCell>
        <mxCell id="uPV0i0hWWloQ9XYH6VPm-49" value="" style="endArrow=classic;html=1;rounded=0;exitX=1;exitY=0.5;exitDx=0;exitDy=0;" edge="1" parent="1" source="uPV0i0hWWloQ9XYH6VPm-44" target="uPV0i0hWWloQ9XYH6VPm-45">
          <mxGeometry width="50" height="50" relative="1" as="geometry">
            <mxPoint x="2370" y="480" as="sourcePoint" />
            <mxPoint x="2410" y="480" as="targetPoint" />
          </mxGeometry>
        </mxCell>
        <mxCell id="uPV0i0hWWloQ9XYH6VPm-51" value="" style="endArrow=classic;html=1;rounded=0;exitX=1;exitY=0.5;exitDx=0;exitDy=0;" edge="1" parent="1" source="uPV0i0hWWloQ9XYH6VPm-42" target="uPV0i0hWWloQ9XYH6VPm-46">
          <mxGeometry width="50" height="50" relative="1" as="geometry">
            <mxPoint x="2370" y="480" as="sourcePoint" />
            <mxPoint x="2410" y="480" as="targetPoint" />
          </mxGeometry>
        </mxCell>
        <mxCell id="uPV0i0hWWloQ9XYH6VPm-52" value="" style="endArrow=classic;html=1;rounded=0;exitX=1;exitY=0.5;exitDx=0;exitDy=0;entryX=0;entryY=0.5;entryDx=0;entryDy=0;" edge="1" parent="1" source="uPV0i0hWWloQ9XYH6VPm-46" target="uPV0i0hWWloQ9XYH6VPm-47">
          <mxGeometry width="50" height="50" relative="1" as="geometry">
            <mxPoint x="2370" y="600" as="sourcePoint" />
            <mxPoint x="2410" y="600" as="targetPoint" />
          </mxGeometry>
        </mxCell>
        <mxCell id="uPV0i0hWWloQ9XYH6VPm-53" value="FCP &amp;lt; 1s" style="text;html=1;align=center;verticalAlign=middle;resizable=0;points=[];autosize=1;strokeColor=none;fillColor=none;" vertex="1" parent="1">
          <mxGeometry x="2140" y="575" width="70" height="30" as="geometry" />
        </mxCell>
      </root>
    </mxGraphModel>
  </diagram>
</mxfile>
